<svg version="1.1" id="Layer_1" xmlns="http://www.w3.org/2000/svg" xmlns:xlink="http://www.w3.org/1999/xlink" x="0px" y="0px"
	 width="100%" viewBox="0 0 512 512" enable-background="new 0 0 512 512" xml:space="preserve">
<path fill="#523CBD" opacity="1.000000" stroke="none" 
	d="
M438.999878,352.000000 
	C438.999847,364.997192 439.324188,377.504761 438.925232,389.989197 
	C438.299225,409.578308 431.089478,426.633148 418.169067,441.393005 
	C409.365692,451.449707 398.971069,459.031891 386.608826,464.219482 
	C376.591827,468.422943 366.187317,470.853638 355.503754,470.889679 
	C290.185822,471.109924 224.858582,471.613251 159.551559,470.740723 
	C126.950554,470.305145 101.839737,454.921936 85.538597,426.103638 
	C78.071503,412.902771 74.955582,398.734741 74.969627,383.657990 
	C75.037636,310.674438 74.973579,237.690781 75.019279,164.707199 
	C75.030617,146.600739 81.604256,130.676743 92.237045,116.386208 
	C102.231125,102.954102 115.591568,93.933510 130.701584,88.141052 
	C133.488663,97.229897 135.670395,106.272934 139.020905,114.859940 
	C145.524536,131.528137 157.372528,143.874298 172.647125,152.829010 
	C186.916626,161.194489 202.697495,163.972275 219.046677,163.991730 
	C245.040787,164.022675 271.037140,164.197464 297.028198,163.912872 
	C309.187714,163.779739 321.162994,162.322083 332.596863,157.286270 
	C350.616943,149.349686 364.293610,137.039612 373.304932,119.524460 
	C378.315765,109.785004 381.357391,99.490486 382.331818,88.164001 
	C392.135284,91.079201 400.582703,96.262413 408.136108,102.741943 
	C423.475250,115.900291 433.762207,132.228241 437.495361,152.308197 
	C438.274902,156.501053 438.930695,160.794052 438.936951,165.041946 
	C439.028412,227.194519 438.999878,289.347290 438.999878,352.000000 
M359.708435,225.762466 
	C349.505524,217.852829 338.814270,218.388947 329.690979,227.490768 
	C299.503296,257.607483 269.372528,287.781250 239.213120,317.926331 
	C237.709061,319.429657 236.140717,320.868683 234.313217,322.613647 
	C232.701431,321.114319 231.348373,319.930756 230.078995,318.663391 
	C214.990662,303.599487 199.940140,288.497650 184.826523,273.459229 
	C175.151016,263.831848 162.091476,263.389679 153.284119,272.282135 
	C144.533173,281.117645 145.007462,293.817261 154.555252,303.387512 
	C175.731155,324.613129 196.931122,345.814880 218.161499,366.986023 
	C228.102097,376.898895 240.393738,376.943085 250.409271,366.952301 
	C286.848907,330.602631 323.243134,294.207336 359.598633,257.773529 
	C369.257324,248.094040 369.404358,236.428360 359.708435,225.762466 
z"/>
<path fill="#CA86FF" opacity="1.000000" stroke="none" 
	d="
M335.315430,103.243744 
	C327.678589,116.031677 316.077240,121.665688 302.205414,121.866371 
	C272.215942,122.300217 242.215805,122.036537 212.220139,121.986702 
	C193.198761,121.955093 177.170181,107.179398 173.722000,89.602722 
	C169.610733,68.646049 185.725479,45.610832 205.870117,43.951439 
	C208.460739,43.738041 211.034073,43.047859 213.616470,43.042038 
	C242.945480,42.975910 272.275116,42.911331 301.603668,43.045841 
	C312.585541,43.096207 322.528198,46.805538 330.081390,54.773727 
	C340.738708,66.016647 344.463348,82.179062 338.218689,97.318840 
	C337.427490,99.237068 336.456665,101.081223 335.315430,103.243744 
z"/>
<path fill="#C986FF" opacity="1.000000" stroke="none" 
	d="
M359.987091,225.992737 
	C369.404358,236.428360 369.257324,248.094040 359.598633,257.773529 
	C323.243134,294.207336 286.848907,330.602631 250.409271,366.952301 
	C240.393738,376.943085 228.102097,376.898895 218.161499,366.986023 
	C196.931122,345.814880 175.731155,324.613129 154.555252,303.387512 
	C145.007462,293.817261 144.533173,281.117645 153.284119,272.282135 
	C162.091476,263.389679 175.151016,263.831848 184.826523,273.459229 
	C199.940140,288.497650 214.990662,303.599487 230.078995,318.663391 
	C231.348373,319.930756 232.701431,321.114319 234.313217,322.613647 
	C236.140717,320.868683 237.709061,319.429657 239.213120,317.926331 
	C269.372528,287.781250 299.503296,257.607483 329.690979,227.490768 
	C338.814270,218.388947 349.505524,217.852829 359.987091,225.992737 
z"/>
</svg>